<?xml version="1.0" encoding="UTF-8"?>
<svg width="150px" height="38px" viewBox="0 0 150 38" version="1.1" xmlns="http://www.w3.org/2000/svg" xmlns:xlink="http://www.w3.org/1999/xlink">
    <!-- Generator: sketchtool 56.3 (101010) - https://sketch.com -->
    <title>5CBA287F-4F75-4645-96D5-7A2EEF5F7279</title>
    <desc>Created with sketchtool.</desc>
    <g id="Home" stroke="none" stroke-width="1" fill="none" fill-rule="evenodd">
        <g id="Login" transform="translate(-113.000000, -68.000000)" fill="#FFFFFF" fill-rule="nonzero">
            <path d="M188.026795,104.920317 L261.934143,104.920317 L261.934143,69.0796825 L188.026795,69.0796825 L188.026795,104.920317 Z M179.93462,106 L113,106 L113,68 L179.93462,68 L263,68 L263,106 L179.93462,106 Z M125.546147,89.0779365 C125.707846,88.6824709 125.895845,88.2985736 126.108848,87.9288889 C126.230916,87.7268254 126.361915,87.6273016 126.495891,87.6273016 C126.608299,87.6241316 126.705948,87.7050626 126.72514,87.8173016 C126.771902,88.0809044 126.789873,88.3489209 126.77873,88.6165079 C126.788897,89.1351857 126.766024,89.6539877 126.710254,90.1696825 C126.694719,90.3942911 126.604457,90.6069264 126.45421,90.7728571 C126.29274,90.9025933 126.143261,91.0469452 126.007622,91.204127 C125.946029,91.2918868 125.915596,91.3981909 125.921281,91.5057143 C125.921281,91.8253968 126.141598,92.0666667 126.594141,92.2053968 C127.189801,92.3477902 127.801617,92.4086497 128.413243,92.3863492 C128.940217,92.3863492 129.333214,92.3742857 129.586281,92.3501587 C129.834682,92.3254702 130.079443,92.2718352 130.315708,92.1903175 C130.762296,92.0395238 130.985633,91.7922222 130.985633,91.4363492 C130.987979,91.2391971 130.890138,91.0546482 130.726569,90.9477778 C130.554159,90.8424989 130.397716,90.7124709 130.262117,90.561746 C130.182193,90.4109891 130.136425,90.2440898 130.128141,90.0731746 C130.004318,88.9436551 129.946657,87.8076972 129.95546,86.6712698 C129.945017,85.8157854 129.999762,84.9607602 130.119209,84.1138095 C130.159422,83.8141966 130.309243,83.5408055 130.539002,83.3477778 C130.665214,83.259347 130.775065,83.1490917 130.863523,83.0220635 C130.916808,82.9127278 130.939463,82.7906802 130.929022,82.6692063 C130.929022,82.0157672 130.249216,81.6890476 128.889603,81.6890476 C128.115517,81.6890476 127.582589,81.797619 127.290818,82.0147619 C126.970855,82.2905922 126.72246,82.6416137 126.567345,83.0371429 L126.320233,83.5619048 L125.30499,85.6549206 C125.238637,85.8088725 125.150366,85.9521413 125.042992,86.0801587 C124.976791,86.152342 124.884207,86.1937821 124.786948,86.1947619 C124.688031,86.1997807 124.592031,86.1599985 124.524949,86.0861905 C124.396728,85.9011177 124.284184,85.7053941 124.18852,85.5011111 L122.699893,82.5877778 C122.617347,82.4008027 122.517668,82.2220833 122.402167,82.0539683 C122.32075,81.9622347 122.21859,81.8918648 122.104442,81.8488889 C121.681199,81.7193256 121.23895,81.6652408 120.797428,81.6890476 C120.498469,81.6935501 120.200115,81.717728 119.904252,81.7614286 C119.617337,81.7956996 119.333591,81.8531848 119.055734,81.9333333 C118.861176,81.9806561 118.684961,82.0856564 118.549601,82.2349206 C118.427928,82.3678601 118.359931,82.5422102 118.359057,82.7234921 C118.385436,83.0253635 118.585019,83.283104 118.868167,83.3809524 C118.98092,83.4460699 119.086685,83.5228849 119.183756,83.6101587 C119.247734,83.6753358 119.297442,83.7534333 119.329642,83.8393651 C119.483198,84.3859755 119.544597,84.9549151 119.511254,85.5222222 C119.511254,86.1796825 119.490413,86.9728571 119.454686,87.8987302 C119.414989,88.8296296 119.373308,89.4961376 119.329642,89.898254 C119.31526,90.1595622 119.268242,90.4179705 119.189711,90.6673016 C119.124272,90.805579 119.009297,90.9134178 118.868167,90.9688889 C118.701662,91.0434337 118.545515,91.1397561 118.403716,91.2553968 C118.338008,91.3412046 118.30617,91.4487082 118.314398,91.5569841 C118.312413,92.1098942 118.89397,92.3863492 120.059069,92.3863492 C121.43853,92.3863492 122.12826,92.1018519 122.12826,91.5328571 C122.14286,91.3486882 122.049692,91.1729114 121.89008,91.0834921 C121.731571,91.007414 121.580967,90.9154754 121.440514,90.8090476 C121.374096,90.7431812 121.327616,90.6594792 121.306538,90.5677778 C121.245759,90.2134054 121.221811,89.8535564 121.235084,89.494127 C121.235084,88.9874603 121.24997,88.4385714 121.285697,87.8353968 C121.297606,87.5669841 121.389901,87.4312698 121.535787,87.4312698 C121.681672,87.4312698 121.818626,87.6031746 121.946648,87.9047619 L122.899369,90.1636508 C123.024413,90.4622222 123.182208,90.8060317 123.372752,91.1920635 C123.474974,91.4252133 123.596482,91.6491864 123.735977,91.8615873 C123.802477,91.9506845 123.905597,92.0040243 124.015839,92.0063492 C124.13772,91.9970356 124.248096,91.9299509 124.313564,91.8253968 C124.461253,91.6058119 124.584092,91.3700976 124.679767,91.1226984 L125.546147,89.0779365 Z M134.599976,81.6799307 C133.987691,81.6809053 133.37712,81.745584 132.777897,81.8730159 C132.409607,81.9240388 132.052356,82.0371917 131.720972,82.2077778 C131.536927,82.315414 131.423464,82.5142513 131.423246,82.7295238 C131.418052,82.8538002 131.452502,82.9764678 131.521496,83.0793651 C131.631769,83.2145427 131.761195,83.332435 131.905562,83.4292063 C132.124536,83.5566978 132.294514,83.7554527 132.387877,83.9931746 C132.512921,84.3570899 132.575444,85.1894709 132.575444,86.4903175 C132.603615,87.7194558 132.55788,88.9491914 132.43849,90.1726984 C132.395107,90.4328401 132.24179,90.6608414 132.018697,90.7969841 C131.71204,90.9960317 131.557223,91.2071429 131.557223,91.4363492 C131.557223,92.0787302 132.343218,92.3803175 133.909253,92.3803175 C134.692245,92.3951324 135.474095,92.3130974 136.237466,92.1360317 C136.832917,91.9852381 137.130642,91.7047619 137.130642,91.297619 C137.1242,90.9980869 136.934027,90.7344112 136.654281,90.6371429 C136.519368,90.5738148 136.396439,90.4870561 136.291056,90.3807937 C136.212271,90.2831546 136.159028,90.1669901 136.136239,90.0430159 C136.044937,89.580582 135.999285,88.3812698 135.999285,86.4450794 C135.979662,85.672492 136.014485,84.8994709 136.103489,84.1319048 C136.121264,83.8199189 136.283529,83.5347874 136.541146,83.3628571 C136.720737,83.2793745 136.887254,83.1696326 137.03537,83.0371429 C137.105014,82.9426839 137.138826,82.8260169 137.130642,82.7084127 C137.130642,82.2620635 136.806121,81.9695238 136.151125,81.8307937 C135.640326,81.7283088 135.120694,81.6777932 134.599976,81.6799307 Z M142.317018,85.1663492 C142.299043,84.7088839 142.320961,84.2507042 142.382518,83.7971429 C142.418916,83.6016611 142.548123,83.4369287 142.727879,83.3568254 C142.936256,83.2766556 143.131868,83.1658951 143.308443,83.0280952 C143.395718,82.9256682 143.438638,82.791978 143.427534,82.6571429 C143.427534,82.2449735 143.129808,81.9705291 142.534358,81.8338095 C141.846247,81.7142744 141.148177,81.6637654 140.45028,81.6830159 C139.77752,81.6605448 139.105439,81.7450086 138.458497,81.9333333 C137.883887,82.1263492 137.586162,82.4068254 137.586162,82.7777778 C137.593925,82.957 137.687197,83.1212181 137.836251,83.2180952 C138.022471,83.3362633 138.222494,83.4304803 138.431702,83.4985714 C138.599316,83.5429025 138.73824,83.6614674 138.809813,83.8212698 C138.885963,84.0926511 138.917151,84.3749473 138.902108,84.6566667 C138.902108,85.0819048 138.896153,85.6760317 138.93188,86.5566667 C138.967607,87.4373016 138.967607,88.1068254 138.967607,88.5742857 C138.993773,89.1790612 138.962868,89.7849859 138.875313,90.3838095 C138.789265,90.6441506 138.597514,90.8548499 138.348339,90.9628571 C138.177477,91.0406163 138.018149,91.1421222 137.874955,91.2644444 C137.808842,91.3503189 137.775068,91.4572306 137.779683,91.5660317 C137.772193,91.7841072 137.887625,91.9875642 138.077409,92.0907937 C138.297232,92.1888538 138.537592,92.2302967 138.777063,92.2114286 L143.814577,92.2114286 L145.416339,92.4165079 C145.553647,92.4210573 145.688283,92.3773721 145.797428,92.2928571 C145.944511,92.1581687 146.069173,92.0003195 146.166607,91.8253968 C146.56928,91.2289165 146.798309,90.5297823 146.827557,89.8077778 C146.8423,89.4767098 146.758265,89.1488188 146.5864,88.8668254 C146.456375,88.6436066 146.220013,88.5061362 145.964154,88.5049206 C145.70811,88.5049206 145.544361,88.6707937 145.472907,89.0025397 C145.347393,89.9763416 144.477998,90.6709758 143.513874,90.5677778 C143.004764,90.5677778 142.638561,90.3807937 142.510539,90.1666667 C142.382518,89.9525397 142.317018,89.445873 142.317018,88.6587302 L142.317018,85.1663492 Z M156.628677,86.9698413 C155.457624,84.3259259 154.563455,82.7275132 153.946171,82.1746032 C153.573631,81.804269 153.077466,81.5890227 152.555794,81.5714286 C152.069337,81.5603656 151.602143,81.7639753 151.275575,82.1293651 C151.137055,82.2676012 151.03473,82.438628 150.977849,82.6269841 C150.922095,82.9251356 150.89715,83.228359 150.903418,83.531746 C150.894962,83.9580788 150.828846,84.3812247 150.706919,84.7893651 C150.490153,85.4483455 150.237696,86.0947226 149.950697,86.7255556 L148.935453,89.0779365 C148.751725,89.5506268 148.521305,90.0032974 148.247708,90.4290476 C148.061087,90.6576671 147.814387,90.8281005 147.536144,90.9206349 C147.380104,90.9612183 147.236724,91.0411002 147.119328,91.1528571 C147.038914,91.2564339 146.998674,91.3862274 147.006193,91.5177778 C146.982785,91.8451484 147.197112,92.1414356 147.512326,92.2174603 C148.073939,92.3511351 148.650709,92.4079373 149.227224,92.3863492 C150.596761,92.3863492 151.281529,92.0847619 151.281529,91.4815873 C151.288913,91.2144399 151.10325,90.9815899 150.843873,90.9326984 C150.704149,90.8942824 150.569277,90.839634 150.441944,90.7698413 C150.400262,90.7366667 150.382398,90.6642857 150.382398,90.5526984 C150.38357,90.4211804 150.413035,90.2915025 150.468739,90.1726984 C150.508535,90.0640927 150.577653,89.9689978 150.668215,89.898254 C150.793259,89.8168254 151.177325,89.7746032 151.814458,89.7746032 C152.405377,89.7643797 152.996287,89.7956184 153.582946,89.8680952 C153.981898,89.9314286 154.178397,90.1304762 154.178397,90.4712698 C154.172819,90.6711645 154.032318,90.8409541 153.83899,90.8814286 C153.684916,90.924744 153.54312,91.0043115 153.425152,91.1136508 C153.344825,91.2137649 153.304458,91.3407407 153.312016,91.4695238 C153.309575,91.6606353 153.387521,91.8437724 153.526378,91.9731746 C153.684302,92.1228874 153.883875,92.2197564 154.098011,92.2506349 C154.8976,92.36569 155.705159,92.4141063 156.512564,92.3953968 C157.215571,92.4298123 157.919428,92.348328 158.596642,92.154127 C158.962361,92.0640269 159.222571,91.7360923 159.230797,91.3549206 C159.230797,91.038254 159.058116,90.8542857 158.709777,90.7969841 C158.562527,90.7815987 158.423888,90.7192995 158.313803,90.6190476 C158.178383,90.4474615 158.069004,90.2563614 157.989282,90.0520635 L156.628677,86.9698413 Z M151.609027,87.9288889 C151.38871,87.9288889 151.280537,87.8645503 151.284506,87.735873 C151.348905,87.4158757 151.44878,87.1042708 151.582232,86.8069841 C151.701322,86.4903175 151.769799,86.312381 151.79064,86.2671429 C151.906752,85.9263492 152.049661,85.7574603 152.222341,85.7574603 C152.331379,85.7634623 152.431965,85.8188377 152.496249,85.908254 C152.63813,86.0980484 152.763637,86.2998499 152.871383,86.5114286 C153.23163,87.165873 153.413243,87.6212698 153.413243,87.7449206 C153.413243,87.8685714 153.282244,87.9288889 153.023223,87.9288889 L151.609027,87.9288889 Z M163.54186,82.2047619 C163.360805,82.0227417 163.146399,81.8782919 162.910682,81.7795238 C162.637526,81.7030728 162.354219,81.6705075 162.071097,81.6830159 C161.598922,81.6735682 161.126621,81.6937124 160.656901,81.7433333 C159.862967,81.87 159.466,82.177619 159.466,82.6661905 C159.462358,82.8056438 159.506548,82.9420644 159.591044,83.0522222 C159.717093,83.1918304 159.870111,83.3037198 160.04061,83.3809524 C160.199499,83.4496657 160.341727,83.5525749 160.457425,83.6825397 C160.556338,83.8331034 160.624188,84.0023652 160.656901,84.1801587 C160.828903,85.1237073 160.900765,86.0831874 160.871264,87.0422222 C160.885838,87.9847936 160.845077,88.9274091 160.749196,89.8650794 C160.734858,90.1672812 160.583133,90.4457099 160.338335,90.6190476 C160.172475,90.7079559 160.020895,90.821845 159.88877,90.9568254 C159.812067,91.0709507 159.776336,91.2082769 159.787543,91.345873 C159.794619,91.687533 160.007127,91.9900997 160.323449,92.1088889 C160.80006,92.3131741 161.316014,92.4059517 161.832917,92.3803175 C163.269938,92.3803175 163.988448,92.0274603 163.988448,91.321746 C163.969819,91.0260883 163.78067,90.7694351 163.506133,90.6673016 C163.280541,90.5516085 163.113929,90.3444777 163.047636,90.0973016 C162.954249,89.6209119 162.917268,89.1349422 162.937478,88.6496825 C162.937478,87.7931746 163.080386,87.3649206 163.378111,87.3649206 C163.667089,87.4134065 163.929751,87.5640718 164.119447,87.7901587 L168.385852,91.8434921 C168.551388,92.0113515 168.730664,92.164704 168.921758,92.3019048 C169.040141,92.3680124 169.173651,92.4013026 169.308801,92.3984127 C169.648208,92.3984127 169.883411,92.154127 170.01441,91.6625397 C170.141547,91.0266729 170.192529,90.3775965 170.16625,89.7293651 C170.16625,89.0719048 170.16625,88.5501587 170.16625,88.1671429 L170.16625,85.6880952 C170.136382,85.0469744 170.204676,84.405034 170.368703,83.7850794 C170.398104,83.6998524 170.444751,83.621784 170.505657,83.555873 C170.595642,83.4827197 170.696015,83.4237481 170.803382,83.3809524 C171.129609,83.2763165 171.352059,82.97059 171.354174,82.6239683 C171.351689,82.2287324 171.07133,81.8914869 170.687269,81.821746 C170.193367,81.7084036 169.686676,81.6627576 169.180779,81.6860317 C168.782347,81.6726473 168.383564,81.6978945 167.989877,81.7614286 C167.439085,81.8850794 167.162201,82.1565079 167.162201,82.5847619 C167.155685,82.734419 167.196351,82.8822941 167.278314,83.0069841 C167.384933,83.1377881 167.520631,83.2411402 167.674288,83.3085714 C167.891276,83.4112416 168.055548,83.6017295 168.126831,83.8333333 C168.218805,84.2630398 168.255828,84.702946 168.236989,85.1422222 C168.236989,85.7061905 168.111945,85.9866667 167.861855,85.9866667 C167.727879,85.9866667 167.468858,85.8238095 167.132428,85.5222222 L163.54186,82.2047619 Z M177.269977,81.6257143 C176.525016,81.6152364 175.785052,81.7504034 175.090628,82.0238095 C174.153318,82.3774522 173.342292,83.0077943 172.762415,83.8333333 C172.110398,84.7668797 171.769347,85.8867667 171.788853,87.0301587 C171.778047,88.0333956 172.039648,89.020344 172.545076,89.8831746 C173.047199,90.7575479 173.801474,91.4553047 174.706562,91.8826984 C175.450039,92.243284 176.264065,92.4298464 177.088365,92.4286591 C177.732438,92.432081 178.372847,92.3302418 178.984876,92.1269841 C179.965253,91.8054505 180.831439,91.200585 181.476837,90.3868254 C182.209791,89.4820218 182.605968,88.3453149 182.596284,87.1749206 C182.58939,86.3297435 182.395048,85.4969439 182.027629,84.7380952 C181.672801,83.9674839 181.153112,83.286525 180.506252,82.7446032 C179.589159,82.0010368 178.444488,81.6052854 177.269977,81.6257143 Z M176.585209,83.8121736 C176.848645,83.830251 177.100675,83.9279582 177.308682,84.0926984 C177.572185,84.2955826 177.792878,84.5499023 177.957723,84.8406349 C178.280755,85.4071558 178.525203,86.0160541 178.684173,86.6501587 C178.863361,87.2973699 178.958443,87.9654928 178.967012,88.637619 C178.984936,89.0451705 178.86638,89.4468992 178.630582,89.777619 C178.421402,90.0622683 178.087495,90.2246225 177.737406,90.2119048 C177.498327,90.208002 177.265943,90.1312876 177.070501,89.991746 C176.844696,89.8349283 176.656481,89.6288132 176.519709,89.3885714 C176.163291,88.7560364 175.882446,88.0827842 175.683101,87.3830159 C175.480156,86.7387955 175.368879,86.0685656 175.352626,85.3925397 C175.343577,85.0357747 175.438875,84.6842652 175.626533,84.3822222 C175.817743,84.0275498 176.186287,83.8084242 176.585209,83.8121736 Z M199.009884,81.6256697 C199.742634,81.626611 200.465905,81.7935445 201.126712,82.1142857 C201.333783,82.2302665 201.559625,82.3078853 201.793617,82.3434921 C201.941347,82.3345135 202.087896,82.3112867 202.231273,82.274127 C202.302591,82.2578182 202.3755,82.2497245 202.448613,82.25 C202.720434,82.2572956 202.973471,82.3921419 203.133381,82.6149206 C203.623542,83.2355873 203.879021,84.0130363 203.853876,84.8074603 C203.894388,85.3370042 203.656893,85.8490869 203.228653,86.1555556 C203.003922,86.3068407 202.739256,86.3856934 202.469453,86.381746 C202.250223,86.3917323 202.033187,86.3338766 201.847207,86.215873 C201.647714,86.0546144 201.488588,85.84796 201.382756,85.6126984 C201.227777,85.3127374 201.051663,85.0244779 200.855782,84.7501587 C200.713942,84.5720786 200.547487,84.4156533 200.361558,84.2857143 C199.919494,83.9555824 199.386371,83.7741633 198.837204,83.7669841 C198.362427,83.7468268 197.906679,83.9574871 197.610575,84.3339683 C197.291318,84.768212 197.130359,85.301046 197.155055,85.8419048 C197.14501,86.6921263 197.37093,87.5281104 197.807074,88.2546032 C198.320075,89.1813912 199.298142,89.7435539 200.346671,89.7142857 C200.75727,89.7138302 201.164875,89.6434857 201.552459,89.5061905 C201.897241,89.4015123 202.214596,89.2201689 202.481362,88.9753968 C202.599514,88.8314501 202.76396,88.7342791 202.945814,88.7009524 C203.127589,88.7031468 203.296725,88.7955745 203.398357,88.948254 C203.526615,89.1219376 203.592758,89.3346385 203.585924,89.5514286 C203.572157,89.8967757 203.482659,90.2346859 203.323925,90.5406349 C203.175175,90.8686958 202.960154,91.1615069 202.692747,91.4001587 C202.49271,91.5222689 202.269541,91.6003637 202.037752,91.6293651 C201.774496,91.691674 201.519597,91.7858428 201.278552,91.9098413 C200.556379,92.2585851 199.76523,92.4359888 198.965226,92.4285714 C198.100896,92.4223664 197.247989,92.2279729 196.464332,91.8585714 C194.598059,90.9883505 193.387195,89.1139338 193.347119,87.0331746 C193.343369,85.9174492 193.708075,84.8324952 194.383232,83.9509524 C194.993999,83.1368078 195.805034,82.4993227 196.735263,82.1022222 C197.452504,81.7848709 198.227213,81.6225778 199.009884,81.6256697 Z M210.180541,81.6257143 C211.397388,81.6023385 212.586249,81.99668 213.553769,82.7446032 C214.22369,83.2800703 214.76605,83.9614026 215.140645,84.7380952 C215.523012,85.4925979 215.726868,86.3268588 215.736185,87.1749206 C215.74316,88.3543386 215.326192,89.4960405 214.563058,90.3868254 C213.880667,91.2020392 212.981694,91.8018014 211.972847,92.1149206 C211.332876,92.3225714 210.664974,92.4283803 209.992974,92.4285911 C209.135093,92.4307966 208.286937,92.24456 207.506967,91.8826984 C206.575066,91.4619521 205.791963,90.7633778 205.262117,89.8801587 C204.737276,89.0242225 204.463635,88.034707 204.473145,87.0271429 C204.454328,85.8777661 204.810113,84.7541652 205.485411,83.8303175 C206.100771,82.9983577 206.944854,82.368886 207.911873,82.0207937 C208.6376,81.7486089 209.406745,81.6146653 210.180541,81.6257143 Z M209.463023,83.8122222 C209.052437,83.8053505 208.67008,84.0232164 208.462665,84.3822222 C208.263555,84.6801291 208.159623,85.0328181 208.16494,85.3925397 C208.182608,86.0696453 208.298986,86.7403866 208.510301,87.3830159 C208.718686,88.08528 209.011671,88.7588699 209.382637,89.3885714 C209.52631,89.6313466 209.722849,89.8376557 209.957247,89.991746 C210.162472,90.1318061 210.403515,90.2083058 210.650947,90.2119048 C211.008939,90.2224224 211.35091,90.0615109 211.573895,89.777619 C211.81811,89.4506106 211.941376,89.0472001 211.922234,88.637619 C211.91276,87.9644931 211.812593,87.2958298 211.624509,86.6501587 C211.45871,86.0136098 211.204068,85.4042909 210.868286,84.8406349 C210.698349,84.5550437 210.473602,84.306871 210.207336,84.1107937 C209.992799,83.9407279 209.734337,83.8370494 209.463023,83.8122222 Z M221.893057,83.4080952 C221.547696,83.4080952 221.336311,83.4955556 221.255925,83.6734921 C221.168932,83.9240391 221.111956,84.1842619 221.086221,84.4485714 C221.036275,84.7971663 221.010409,85.1488675 221.008813,85.5011111 C220.991774,85.6536085 221.060837,85.8028548 221.187448,85.8871429 C221.401012,85.9772099 221.63269,86.0144283 221.863285,85.9957143 C222.03493,86.008718 222.206144,85.9653593 222.351554,85.8720635 C222.469412,85.7663283 222.544668,85.6203046 222.562939,85.4619048 C222.679052,84.91 222.914255,84.6325397 223.271526,84.6325397 C223.882855,84.6325397 224.187527,85.3734392 224.185542,86.8552381 C224.185542,87.7921693 224.053551,88.4817989 223.789568,88.924127 C223.661341,89.1735823 223.406259,89.3295481 223.128617,89.328254 C222.830892,89.328254 222.661189,89.1292063 222.61653,88.7250794 C222.604981,88.5393288 222.574044,88.3553396 222.524235,88.1761905 C222.477266,88.0599402 222.403811,87.9565963 222.309873,87.8746032 C222.107264,87.705397 221.848376,87.6212191 221.5864,87.6393651 C221.424083,87.6205194 221.260649,87.6635203 221.127903,87.76 C221.035415,87.8954425 220.998087,88.0618129 221.023699,88.2244444 C221.023699,88.2666667 221.023699,88.5019048 221.023699,88.9331746 C221.023699,89.8097884 221.113017,90.3446032 221.291652,90.537619 C221.338822,90.6029156 221.402626,90.6539958 221.476242,90.6853968 C221.638551,90.7292374 221.803698,90.7614859 221.970466,90.7819048 C222.102669,90.8043773 222.221126,90.8778866 222.300941,90.9869841 C222.389925,91.1022007 222.437213,91.2448431 222.434917,91.3911111 C222.434917,91.7801587 222.208646,92.0334921 221.759081,92.1450794 C220.856391,92.3254423 219.936807,92.4043326 219.01703,92.3803175 C218.300609,92.4126621 217.58307,92.3508244 216.882339,92.1963492 C216.71106,92.1452922 216.56067,92.0395005 216.453614,91.8947619 C216.346193,91.7564364 216.288444,91.5851963 216.289865,91.4092063 C216.282989,91.2010593 216.372125,91.0015241 216.531023,90.8693651 C216.662567,90.7946579 216.79999,90.7311077 216.941884,90.6793651 C217.244123,90.5404932 217.440108,90.2374158 217.44504,89.9012698 C217.568376,88.4824317 217.614097,87.0577663 217.581994,85.6338095 C217.603503,85.0098185 217.570626,84.3851217 217.483744,83.7669841 C217.436806,83.4977679 217.258703,83.2708323 217.010361,83.1638095 C216.830067,83.0939684 216.663662,82.991809 216.519114,82.8622222 C216.43564,82.7625357 216.393967,82.6337308 216.403001,82.5033333 C216.407071,82.2725662 216.528711,82.060357 216.724544,81.942381 C216.962131,81.7880067 217.240326,81.7101587 217.522448,81.7192063 C217.721924,81.7192063 218.013695,81.7342857 218.400738,81.7644444 C219.216506,81.8307937 220.193045,81.8639683 221.330356,81.8639683 C222.556997,81.8934759 223.784233,81.8420975 225.004287,81.7101587 C225.090628,81.7101587 225.15315,81.7101587 225.200786,81.7101587 C225.405247,81.7273341 225.590664,81.8384715 225.703942,82.011746 C226.132521,82.5450604 226.366013,83.2120057 226.364892,83.8996825 C226.377506,84.168528 226.301003,84.433925 226.147553,84.6536508 C226.012934,84.8352056 225.800008,84.9396796 225.57592,84.934127 C225.435165,84.9435846 225.295178,84.9065467 225.176968,84.8285714 C224.93231,84.5933334 224.701663,84.3435814 224.486245,84.0806349 C224.274045,83.8267894 223.988824,83.6464779 223.670478,83.5649206 C223.084073,83.4570336 222.489045,83.4045331 221.893057,83.4080952 Z M232.066333,83.4080952 C231.720972,83.4080952 231.50661,83.4955556 231.426224,83.6734921 C231.339245,83.9238807 231.283242,84.1842255 231.259497,84.4485714 C231.208669,84.7971086 231.181809,85.1488021 231.179112,85.5011111 C231.161977,85.6543498 231.232432,85.8041081 231.360724,85.8871429 C231.574288,85.9772099 231.805966,86.0144283 232.036561,85.9957143 C232.208169,86.0082885 232.379252,85.9649629 232.52483,85.8720635 C232.643801,85.7664198 232.721002,85.6207265 232.74217,85.4619048 C232.858283,84.91 233.093486,84.6325397 233.447779,84.6325397 C234.057124,84.6325397 234.362788,85.3734392 234.364773,86.8552381 C234.364773,87.7921693 234.231789,88.4817989 233.965821,88.924127 C233.837595,89.1735823 233.582512,89.3295481 233.304871,89.328254 C233.007145,89.328254 232.840419,89.1292063 232.79576,88.7250794 C232.783603,88.5391756 232.75166,88.3551456 232.700488,88.1761905 C232.654663,88.0593018 232.581025,87.9557 232.486126,87.8746032 C232.285032,87.7047528 232.026791,87.6204383 231.765631,87.6393651 C231.603273,87.619927 231.439631,87.6629828 231.307134,87.76 C231.210974,87.89378 231.173298,88.0617046 231.20293,88.2244444 C231.20293,88.2666667 231.20293,88.5019048 231.20293,88.9331746 C231.20293,89.8097884 231.29324,90.3446032 231.47386,90.537619 C231.520465,90.6034643 231.584438,90.6546794 231.658449,90.6853968 C231.819801,90.7290236 231.983943,90.7612702 232.149696,90.7819048 C232.282352,90.8031425 232.401237,90.8769172 232.480171,90.9869841 C232.570008,91.1019171 232.618334,91.2445186 232.617125,91.3911111 C232.617125,91.7801587 232.390854,92.0334921 231.938311,92.1450794 C231.035655,92.3256865 230.116045,92.4045791 229.196261,92.3803175 C228.480827,92.4125366 227.764289,92.3506988 227.064547,92.1963492 C226.893267,92.1452922 226.742878,92.0395005 226.635822,91.8947619 C226.527544,91.7567193 226.468726,91.5855183 226.469096,91.4092063 C226.46222,91.2010593 226.551356,91.0015241 226.710254,90.8693651 C226.843297,90.7956016 226.981634,90.7320888 227.124092,90.6793651 C227.425145,90.5379906 227.619576,90.2343543 227.624271,89.898254 C227.746017,88.4793193 227.791736,87.0547422 227.761224,85.6307937 C227.782734,85.0068026 227.749857,84.3821058 227.662975,83.7639683 C227.616037,83.494752 227.437934,83.2678165 227.189592,83.1607937 C227.008499,83.0907464 226.841151,82.9886267 226.695367,82.8592063 C226.611894,82.7595198 226.570221,82.6307149 226.579254,82.5003175 C226.584524,82.269107 226.707218,82.057023 226.903775,81.9393651 C227.140129,81.7847018 227.417472,81.7068381 227.698702,81.7161905 C227.901155,81.7161905 228.192926,81.7312698 228.591878,81.7614286 C229.395737,81.8358201 230.363344,81.8730159 231.4947,81.8730159 C232.72134,81.9024044 233.948569,81.8510263 235.168632,81.7192063 C235.251995,81.7192063 235.317494,81.7192063 235.362153,81.7192063 C235.566753,81.7359414 235.752346,81.8471844 235.865309,82.0207937 C236.293889,82.554108 236.52738,83.2210533 236.526259,83.9087302 C236.538873,84.1775757 236.46237,84.4429726 236.30892,84.6626984 C236.174301,84.8442532 235.961375,84.9487272 235.737287,84.9431746 C235.597447,84.9528546 235.458335,84.9157715 235.341312,84.837619 C235.095324,84.6027837 234.863662,84.3530105 234.647612,84.0896825 C234.436593,83.8359023 234.152329,83.6555367 233.834822,83.5739683 C233.25163,83.4636035 232.659615,83.4080763 232.066333,83.4080952 Z M238.285816,81.8398413 L242.156246,81.8398413 C242.939264,81.8398413 243.507919,81.8398413 243.86519,81.7915873 C244.220098,81.7583505 244.571038,81.6906858 244.913183,81.5895238 C244.99427,81.5635775 245.078332,81.5483718 245.163273,81.5442857 C245.449325,81.5597862 245.708678,81.7194548 245.853995,81.9695238 C246.192565,82.458899 246.365922,83.0460153 246.34822,83.6433333 C246.363023,83.9191597 246.291099,84.1926368 246.142789,84.4244444 C246.012872,84.6104054 245.798851,84.7171013 245.574134,84.7079365 C245.437638,84.71631 245.302061,84.6803914 245.187091,84.6053968 C245.040552,84.4728417 244.91503,84.318227 244.814934,84.1469841 C244.622521,83.8283953 244.326779,83.5874534 243.978326,83.4653968 C243.434739,83.3265854 242.874098,83.2686765 242.314041,83.2934921 C241.739431,83.2934921 241.388115,83.3960317 241.26307,83.5950794 C241.190437,83.7336997 241.150682,83.887554 241.146957,84.0444444 C241.135048,84.2354497 241.129094,84.7149735 241.129094,85.4830159 C241.129094,85.7846032 241.17673,85.977619 241.277956,86.05 C241.52809,86.1515806 241.798894,86.1898814 242.066929,86.1615873 C242.230655,86.175818 242.393834,86.1285907 242.525426,86.0288889 C242.638433,85.8962725 242.701683,85.7275534 242.704061,85.552381 C242.722312,85.348308 242.759189,85.1463869 242.814219,84.9492063 C242.855608,84.8373439 242.9267,84.739238 243.01965,84.6657143 C243.121333,84.5744672 243.252999,84.5249897 243.388829,84.5269841 C243.60313,84.5322612 243.800745,84.6453566 243.915803,84.8285714 C244.05367,85.0678138 244.143706,85.3322031 244.180779,85.6066667 C244.255847,85.9920346 244.292749,86.3840311 244.290937,86.7768254 C244.315731,87.4530569 244.189536,88.1262369 243.921758,88.7461905 C243.822571,89.0023114 243.577039,89.169324 243.305466,89.1653968 C243.174162,89.1805214 243.043623,89.1312143 242.95415,89.0326984 C242.864467,88.8621252 242.812646,88.6737672 242.80231,88.4807937 C242.791471,88.2305007 242.678663,87.9959651 242.49076,87.8330613 C242.302857,87.6701574 242.056683,87.5934704 241.810885,87.6212698 C241.628929,87.5996101 241.45044,87.6835964 241.349411,87.8384127 C241.246065,88.0921482 241.203225,88.3669888 241.224366,88.6406349 C241.224366,88.8788889 241.242229,89.1865079 241.274979,89.5634921 C241.288768,89.8161561 241.32262,90.0672851 241.376206,90.3144444 C241.437611,90.4755121 241.579756,90.5907038 241.748363,90.6160317 C242.090063,90.6868511 242.438871,90.7162112 242.787424,90.7034921 C243.368217,90.7322681 243.94802,90.6292289 244.484459,90.4019048 C244.903654,90.1637038 245.231801,89.7898825 245.416339,89.3403175 C245.505238,89.1170047 245.634478,88.9124484 245.797428,88.7371429 C245.939185,88.6192675 246.122608,88.5657303 246.30455,88.5891246 C246.486491,88.612519 246.650892,88.7107799 246.759081,88.8607937 C246.900988,89.0639796 246.973156,89.3087209 246.964511,89.5574603 C246.947673,89.94856 246.869277,90.3344255 246.732285,90.7004762 C246.589782,91.1241906 246.397882,91.5291692 246.160653,91.9068254 C246.078495,92.0355237 245.978191,92.1513536 245.862927,92.2506349 C245.777419,92.3153551 245.671626,92.3464332 245.565202,92.3380952 C245.427308,92.3336697 245.289953,92.318546 245.154341,92.2928571 C244.729027,92.2223041 244.299109,92.1839967 243.868167,92.178254 L237.496844,92.178254 C237.285245,92.191526 237.075422,92.1320137 236.901393,92.0093651 C236.760654,91.8892918 236.682623,91.7100523 236.690008,91.5238095 C236.67982,91.4092662 236.712792,91.2950595 236.782303,91.204127 C236.905706,91.0997414 237.044296,91.0153054 237.193164,90.9538095 C237.323861,90.9024433 237.439597,90.8184055 237.529594,90.7095238 C237.61444,90.5814275 237.671284,90.4364445 237.69632,90.2842857 C237.885336,89.2634095 237.969149,88.2254049 237.946409,87.1869841 C237.946409,85.2306878 237.826327,83.9951852 237.586162,83.4804762 C237.548941,83.3970576 237.491607,83.3244608 237.419436,83.2693651 C237.301704,83.2035453 237.175424,83.1548146 237.044302,83.1246032 C236.77969,83.0655503 236.597451,82.8194121 236.615577,82.5455556 C236.61356,82.3886201 236.663916,82.2355926 236.758485,82.1112698 C236.850845,81.9860254 236.98356,81.8974685 237.133619,81.8609524 C237.516176,81.8172463 237.901949,81.810178 238.285816,81.8398413 Z M248.91759,81.8398413 L252.78802,81.8398413 C253.56806,81.8398413 254.136715,81.8398413 254.496963,81.7915873 C254.851798,81.757825 255.202689,81.6901698 255.544957,81.5895238 C255.625038,81.5636354 255.708108,81.548428 255.792069,81.5442857 C256.078449,81.5587071 256.338269,81.7186628 256.482791,81.9695238 C256.822222,82.4586259 256.996612,83.0457058 256.979993,83.6433333 C256.99539,83.9196456 256.922294,84.1936079 256.771585,84.4244444 C256.642619,84.609921 256.429703,84.7166245 256.205907,84.7079365 C256.06937,84.7167374 255.933664,84.6807845 255.818864,84.6053968 C255.671473,84.4736737 255.545833,84.318914 255.446707,84.1469841 C255.253546,83.8290629 254.958069,83.5883371 254.610099,83.4653968 C254.066483,83.3267542 253.505867,83.2688479 252.945814,83.2934921 C252.368227,83.2934921 252.016911,83.3960317 251.891866,83.5950794 C251.821876,83.73473 251.78228,83.8879672 251.775753,84.0444444 C251.751935,84.2414815 251.740026,84.7240212 251.740026,85.4920635 C251.740026,85.7936508 251.79064,85.9866667 251.891866,86.0590476 C252.140835,86.161092 252.410791,86.1994176 252.677861,86.1706349 C252.841588,86.1848657 253.004767,86.1376383 253.136358,86.0379365 C253.250443,85.9057458 253.314764,85.7369821 253.317971,85.5614286 C253.336222,85.3573557 253.373099,85.1554345 253.428129,84.958254 C253.467287,84.8451845 253.538805,84.7464916 253.63356,84.6747619 C253.734782,84.5827384 253.866759,84.533144 254.002739,84.5360317 C254.21612,84.5417712 254.412637,84.6548766 254.526736,84.837619 C254.66622,85.0763656 254.757313,85.3408867 254.794689,85.6157143 C254.867266,86.0013989 254.903157,86.393246 254.90187,86.785873 C254.926075,87.4617593 254.800963,88.13459 254.535668,88.7552381 C254.435784,89.0107914 254.190694,89.1775038 253.919376,89.1744444 C253.787252,89.1890853 253.656023,89.1399342 253.565083,89.041746 C253.475331,88.8713739 253.42446,88.6827733 253.41622,88.4898413 C253.405381,88.2395483 253.292573,88.0050128 253.10467,87.8421089 C252.916767,87.679205 252.670593,87.6025181 252.424795,87.6303175 C252.242053,87.6088973 252.062811,87.6926973 251.960343,87.8474603 C251.860208,88.1020539 251.818469,88.3763618 251.838276,88.6496825 C251.838276,88.8879365 251.853162,89.1955556 251.885912,89.5725397 C251.901317,89.8250442 251.935152,90.0760473 251.987138,90.3234921 C252.04906,90.4841751 252.190946,90.5991558 252.359295,90.6250794 C252.702031,90.6956865 253.0518,90.7250432 253.401334,90.7125397 C253.982089,90.740706 254.56176,90.6376902 255.098368,90.4109524 C255.516981,90.1720187 255.844924,89.7984297 256.030249,89.3493651 C256.118378,89.1263508 256.246584,88.9218325 256.40836,88.7461905 C256.530641,88.6401245 256.688167,88.5851376 256.848994,88.592381 C257.057343,88.5916229 257.252508,88.6955549 257.370013,88.8698413 C257.5142,89.0720403 257.587553,89.317246 257.578421,89.5665079 C257.56161,89.9578973 257.482175,90.3439253 257.343218,90.7095238 C257.200477,91.1326126 257.009643,91.5374488 256.774562,91.915873 C256.692405,92.0445714 256.592101,92.1604012 256.476837,92.2596825 C256.391329,92.3244027 256.285535,92.3554808 256.179112,92.3471429 C256.040241,92.3425916 255.901905,92.3274696 255.765273,92.3019048 C255.340955,92.2313898 254.912029,92.1930821 254.482077,92.1873016 L248.110754,92.1873016 C247.899229,92.1998657 247.689631,92.140417 247.515303,92.0184127 C247.375672,91.8977466 247.298777,91.7185952 247.306895,91.5328571 C247.297298,91.4188392 247.329052,91.3051864 247.396213,91.2131746 C247.520825,91.1089536 247.660369,91.0245483 247.810051,90.9628571 C247.939921,90.9115137 248.054697,90.8274292 248.143504,90.7185714 C248.229402,90.5907288 248.287268,90.4457295 248.313207,90.2933333 C248.499485,89.2721173 248.582286,88.2342959 248.560319,87.1960317 C248.560319,85.2397354 248.440237,84.0042328 248.200071,83.4895238 C248.163799,83.4063751 248.107494,83.3337848 248.036322,83.2784127 C247.917218,83.2133045 247.790054,83.1646193 247.658211,83.1336508 C247.426067,83.0600384 247.269647,82.8401754 247.274051,82.5938095 C247.272129,82.436874 247.322485,82.2838466 247.417054,82.1595238 C247.50888,82.0337076 247.64182,81.9450003 247.792188,81.9092063 C248.164391,81.8508221 248.541144,81.8276005 248.91759,81.8398413 Z" id="milano-Logo"></path>
        </g>
    </g>
</svg>